<?xml version="1.0" encoding="UTF-8" standalone="no"?>
<svg xmlns="http://www.w3.org/2000/svg" version="1.1" viewBox="0 0 164.30452 55.834613" height="15.757769mm" width="46.370388mm">
  <g transform="translate(0,-996.52762)">
    <path d="m 16.000619,1016.4138 1.90881,-3.81 c -2.823561,-2.3751 -6.155491,-2.6998 -8.3558736,-2.4892 -2.3342504,0.099 -5.3200627,1.0276 -8.1448053,3.9701 -1.6789665,2.7914 -0.88296578,5.4273 -0.54113028,6.8272 0.70184598,3.087 5.64863968,5.5268 7.30135058,5.9748 2.6223506,0.711 4.9160046,2.7105 4.6620056,5.4646 0.02572,1.9797 -1.101353,4.4289 -5.0892854,3.9286 -2.5542187,-0.3384 -4.066151,-1.2024 -6.4547227,-2.1158 l -1.25574458,3.8728 c -0.47227162,0.1889 4.53616648,1.8016 6.69087648,2.066 2.8407116,0.5034 7.7808312,0.065 9.3231622,-1.948 0.725582,-0.667 2.742114,-4.2929 2.605533,-6.9567 -0.502087,-3.218 -1.207342,-4.3728 -3.062136,-6.1722 -1.087167,-0.9622 -1.969513,-1.4548 -2.973993,-1.896 -1.341438,-0.5893 -2.208373,-0.5362 -3.8319132,-1.3015 -0.8373363,-0.5306 -3.1602927,-1.6204 -2.7330041,-4.1281 0.5034995,-3.439 3.3648477,-3.1863 4.9566713,-3.2532 1.250571,-0.023 2.788883,0.182 4.994199,1.9666 z" style="fill:#555555;fill-opacity:1;fill-rule:evenodd;stroke:none" />
    <path d="m 25.108652,1004.3608 5.808377,-1.204 0,6.7808 7.576144,0 0,4.5541 -7.323606,0.022 0,17.4321 c -0.0076,2.3029 0.936865,4.4646 3.724938,4.1038 1.568469,-0.074 3.050003,-0.3056 3.490891,-0.3642 l 0.07621,4.0945 c -0.830203,0.1596 -1.249543,0.3554 -2.603179,0.4388 -3.568124,0.235 -5.228678,-0.1632 -6.950871,-0.7499 0,0 -2.33887,-0.6653 -3.547296,-4.4925 l -0.213968,-20.4193 -5.230178,0 0,-4.5983 5.223214,0 z" style="fill:#555555;fill-opacity:1;fill-rule:evenodd;stroke:none" />
    <path d="m 159.12749,996.52762 5.17703,0 0,43.78318 -5.18193,-0.022 z" style="fill:#555555;fill-opacity:1;fill-rule:evenodd;stroke:none" />
    <path d="m 156.5295,1009.9753 -12.19759,31.4252 c -2.65849,5.7885 -6.76852,9.2781 -10.03208,10.6729 -0.90814,0.2307 -2.8954,0.3651 -3.91118,0.2425 0,0 0.11267,-1.8015 -0.0221,-4.2643 1.32635,0.047 1.84902,-0.6595 2.32713,-0.8534 1.72247,-1.6183 4.63203,-3.2615 6.24655,-6.9688 1.03251,-1.8481 -0.0223,-3.0998 -0.53033,-4.5078 l -10.42982,-25.7463 5.92201,0 8.75045,21.592 7.42462,-21.592 z" style="fill:#555555;fill-opacity:1;fill-rule:evenodd;stroke:none" />
    <path d="m 126.37816,1011.7269 -1.2366,4.25 c -0.56155,-0.2133 -2.32841,-1.0577 -3.92547,-1.3578 -0.64463,-0.071 -3.38035,-0.4084 -5.6214,0.1664 -3.90177,1.3808 -5.35637,4.2214 -5.59375,4.567 -3.12907,4.5558 -0.2515,10.7881 -0.20286,10.9409 0.48694,1.5213 2.91096,3.8717 4.12899,4.4541 1.1692,0.559 3.30665,1.5944 6.71117,1.4706 1.26764,0.045 3.51732,-1.0041 4.42271,-1.507 l 1.18999,4.3602 c -1.90576,1.0421 -3.82324,1.2198 -6.18723,1.3445 0,0 -1.80009,4.6745 -1.86585,4.3444 l -0.85892,-4.3118 c -1.62641,-0.042 -5.56332,-0.6399 -5.91279,-1.0945 0,0 -2.33536,4.9202 -2.35865,3.8954 l -0.10984,-4.8322 c 0,0 -1.73576,-1.1407 -3.15939,-3.22 l -4.01608,1.1241 2.59375,-3.2813 c -0.28537,-1.1064 -0.56196,-1.9987 -0.96875,-4.5 l -4.312504,-1.7812 4.087474,-1.1474 c 0.0291,-1.7858 -0.44522,-3.2316 0.28753,-4.8839 l -3.912804,-3.327 4.890054,0.2208 c 0.89684,-1.3773 1.85014,-2.9035 2.92678,-3.7933 l -1.52903,-4.008 3.8125,2.5953 c 1.47238,-0.918 2.87769,-1.5221 4.92716,-1.9643 l 1.22059,-3.5931 1.05047,3.2951 c 3.50917,-0.024 7.18203,0.079 9.52275,1.5744 z" style="fill:#555555;fill-opacity:1;fill-rule:evenodd;stroke:none" />
    <path d="m 71.844686,1009.9753 5.1875,0 -0.0625,4.5596 c 1.509492,-2.8915 4.343546,-3.647 4.5625,-3.7471 2.410011,-0.8125 4.839661,-0.9687 8.5,-0.1872 1.192721,0.4337 2.660833,1.4113 3.904949,2.5127 0,0 1.832883,1.4216 2.157551,4.5514 l 0,22.6481 -5.875,-0.016 0.08839,-20.1804 c -0.06536,-1.0792 -0.986155,-2.981 -2.539426,-4.106 -2.63451,-1.4758 -4.608081,-1.3077 -6.820409,-0.2095 -3.413925,1.6946 -3.369715,4.0621 -3.509153,5.3225 l 0.112707,19.1734 -5.707107,0 z" style="fill:#555555;fill-opacity:1;fill-rule:evenodd;stroke:none" />
    <path d="m 53.668905,1010.2631 c -1.974603,0.057 -4.052998,0.5723 -6.210938,1.6817 -2.640479,1.7655 -4.74683,3.7967 -5.742187,6.3847 -1.537933,4.2241 -1.385306,5.6002 -1.447266,8.6778 0.289689,2.4042 0.243535,4.804 3.476563,9.334 2.760412,2.3766 4.686983,3.2519 6.283203,3.7968 2.757914,1.0148 5.694714,0.4032 8.74414,0.2676 1.890296,-0.1862 3.782557,-0.3763 6.363282,-1.9433 l -1.929688,-3.9375 c -1.559347,0.9433 -5.525471,2.9057 -11.726562,1.373 -3.637615,-2.098 -4.980745,-5.3116 -5.169922,-9.1914 l 19.886718,0.088 c 0.513584,-1.5105 0.352335,-3.7212 0.04492,-6.586 -0.586503,-2.478 -0.628721,-5.1969 -5.52539,-8.1757 -2.14156,-1.1575 -4.508101,-1.8426 -7.046875,-1.7696 z m 1.210937,4.2774 c 4.457548,-0.033 6.917759,4.0814 6.980469,7.8281 l -15.457031,-0.1758 c 0.237841,-4.2613 2.461634,-7.5833 8.476562,-7.6523 z" style="fill:#555555;fill-opacity:1;fill-rule:evenodd;stroke:none" />
  </g>
</svg>
