<?xml version="1.0" encoding="UTF-8" standalone="no"?>
<svg
   width="216"
   height="218.00002"
   viewBox="0 0 216 218.00002"
   version="1.1"
   id="svg5602"
   sodipodi:docname="reason-logo.svg"
   xmlns:inkscape="http://www.inkscape.org/namespaces/inkscape"
   xmlns:sodipodi="http://sodipodi.sourceforge.net/DTD/sodipodi-0.dtd"
   xmlns:xlink="http://www.w3.org/1999/xlink"
   xmlns="http://www.w3.org/2000/svg"
   xmlns:svg="http://www.w3.org/2000/svg">
  <sodipodi:namedview
     id="namedview5604"
     pagecolor="#ffffff"
     bordercolor="#666666"
     borderopacity="1.0"
     inkscape:showpageshadow="2"
     inkscape:pageopacity="0.0"
     inkscape:pagecheckerboard="0"
     inkscape:deskcolor="#d1d1d1"
     showgrid="false" />
  <!-- Generator: Sketch 48.2 (47327) - http://www.bohemiancoding.com/sketch -->
  <title
     id="title5565">Path</title>
  <desc
     id="desc5567">Created with Sketch.</desc>
  <defs
     id="defs5585">
    <rect
       id="path-1"
       x="0"
       y="0"
       width="216"
       height="216" />
    <filter
       x="0"
       y="0"
       width="1"
       height="1.0092593"
       filterUnits="objectBoundingBox"
       id="filter-2">
      <feOffset
         dx="0"
         dy="2"
         in="SourceAlpha"
         result="shadowOffsetOuter1"
         id="feOffset5570" />
      <feComposite
         in="shadowOffsetOuter1"
         in2="SourceAlpha"
         operator="out"
         result="shadowOffsetOuter1"
         id="feComposite5572" />
      <feColorMatrix
         values="0 0 0 0 0   0 0 0 0 0   0 0 0 0 0  0 0 0 0.02 0"
         type="matrix"
         in="shadowOffsetOuter1"
         id="feColorMatrix5574" />
    </filter>
    <path
       d="M 128.128,197 H 103.702 L 91.666,174.108 H 75.618 V 197 H 54.024 v -82.718 h 37.17 c 21.948,0 34.456,10.62 34.456,29.028 0,12.508 -5.192,21.712 -14.75,26.668 z m -52.51,-65.49 v 25.37 h 15.694 c 8.732,0 13.806,-4.484 13.806,-12.862 0,-8.142 -5.074,-12.508 -13.806,-12.508 z m 63.838,-17.228 h 65.254 v 17.228 h -43.66 v 15.458 h 39.412 v 17.11 l -39.412,0.118 v 15.576 h 44.84 V 197 h -66.434 z"
       id="path-3" />
    <filter
       x="0"
       y="0"
       width="1"
       height="1.0241785"
       filterUnits="objectBoundingBox"
       id="filter-4">
      <feOffset
         dx="0"
         dy="2"
         in="SourceAlpha"
         result="shadowOffsetInner1"
         id="feOffset5578" />
      <feComposite
         in="shadowOffsetInner1"
         in2="SourceAlpha"
         operator="arithmetic"
         k2="-1"
         k3="1"
         result="shadowInnerInner1"
         id="feComposite5580"
         k1="0"
         k4="0" />
      <feColorMatrix
         values="0 0 0 0 0   0 0 0 0 0   0 0 0 0 0  0 0 0 0.02 0"
         type="matrix"
         in="shadowInnerInner1"
         id="feColorMatrix5582" />
    </filter>
  </defs>
  <g
     id="Page-1"
     stroke="none"
     stroke-width="1"
     fill="none"
     fill-rule="evenodd">
    <g
       id="Path">
      <g
         id="Rectangle-1"
         inkscape:export-filename="Rectangle-1.svg"
         inkscape:export-xdpi="96"
         inkscape:export-ydpi="96">
        <use
           fill="#000000"
           fill-opacity="1"
           filter="url(#filter-2)"
           xlink:href="#path-1"
           id="use5587" />
        <use
           fill="#dd4b39"
           fill-rule="evenodd"
           xlink:href="#path-1"
           id="use5589" />
        <rect
           stroke="#d74837"
           stroke-width="1"
           x="0.5"
           y="0.5"
           width="215"
           height="215"
           id="rect5591" />
      </g>
      <path
         d="m 288.086,197 -5.664,-14.632 H 246.668 L 240.886,197 h -22.184 l 35.518,-82.718 h 22.184 L 311.096,197 Z m -34.928,-31.152 h 22.892 l -11.328,-29.5 z M 379.17,139.77 c -8.732,-4.956 -19.824,-8.85 -26.668,-8.85 -5.192,0 -8.614,1.888 -8.614,5.664 0,13.688 43.542,5.9 43.542,35.636 0,16.874 -14.868,25.488 -33.276,25.488 -13.806,0 -28.202,-5.074 -38.114,-13.216 l 8.378,-16.874 c 8.496,7.316 21.358,12.508 29.972,12.508 6.372,0 10.384,-2.36 10.384,-6.726 0,-14.042 -43.542,-5.546 -43.542,-34.81 0,-15.458 13.098,-25.252 33.04,-25.252 12.154,0 24.426,3.776 33.04,9.322 z m 62.646,-26.078 c 25.606,0 44.722,17.936 44.722,41.89 0,24.19 -19.116,42.362 -44.722,42.362 -25.606,0 -44.722,-18.172 -44.722,-42.362 0,-24.072 19.116,-41.89 44.722,-41.89 z m 0.236,18.408 c -12.39,0 -22.774,10.148 -22.774,23.6 0,13.452 10.502,23.836 22.774,23.836 12.39,0 22.302,-10.384 22.302,-23.836 0,-13.452 -9.912,-23.6 -22.302,-23.6 z m 59.224,-17.818 h 18.998 l 37.524,49.796 v -49.796 h 20.06 V 197 h -18.88 L 521.454,147.44 V 197 h -20.178 z"
         id="[]ASON"
         fill="#333333" />
      <g
         id="[RE]ASON"
         style="fill:#ffffff">
        <use
           fill="#FFFFFF"
           fill-rule="evenodd"
           xlink:href="#path-3"
           id="use5595"
           style="fill:#ffffff" />
        <use
           fill="black"
           fill-opacity="1"
           filter="url(#filter-4)"
           xlink:href="#path-3"
           id="use5597"
           style="fill:#ffffff" />
      </g>
    </g>
  </g>
</svg>
